<svg width="10" height="8" viewBox="0 0 10 8" fill="none" xmlns="http://www.w3.org/2000/svg">
<path d="M9.125 4L9.47855 4.35355L9.83211 4L9.47855 3.64645L9.125 4ZM6.72855 7.10355L9.47855 4.35355L8.77145 3.64645L6.02145 6.39645L6.72855 7.10355ZM9.47855 3.64645L6.72855 0.896447L6.02145 1.60355L8.77145 4.35355L9.47855 3.64645Z" fill="white"/>
<path d="M0.875 4L0.521447 3.64645L0.167893 4L0.521447 4.35355L0.875 4ZM3.97855 6.39645L1.22855 3.64645L0.521447 4.35355L3.27145 7.10355L3.97855 6.39645ZM1.22855 4.35355L3.97855 1.60355L3.27145 0.896447L0.521447 3.64645L1.22855 4.35355Z" fill="white"/>
</svg>
