<svg width="15" height="15" viewBox="0 0 15 15" fill="none" xmlns="http://www.w3.org/2000/svg">
<path d="M8.4609 7.39231C8.4609 9.74901 6.56684 11.6595 4.23052 11.6595C1.89421 11.6595 0 9.74858 0 7.39231C0 5.03605 1.89406 3.125 4.23052 3.125C6.56698 3.125 8.4609 5.03561 8.4609 7.39231Z" fill="white"/>
<path d="M13.1017 7.39235C13.1017 9.61067 12.1547 11.4097 10.9865 11.4097C9.81825 11.4097 8.87122 9.61067 8.87122 7.39235C8.87122 5.17402 9.8181 3.375 10.9863 3.375C12.1546 3.375 13.1016 5.17345 13.1016 7.39235" fill="white"/>
<path d="M14.9999 7.39236C14.9999 9.37944 14.6669 10.9913 14.256 10.9913C13.8451 10.9913 13.5122 9.37987 13.5122 7.39236C13.5122 5.40486 13.8452 3.79346 14.256 3.79346C14.6668 3.79346 14.9999 5.40471 14.9999 7.39236Z" fill="white"/>
</svg>
