<svg width="15" height="15" viewBox="0 0 15 15" fill="none" xmlns="http://www.w3.org/2000/svg">
<path fill-rule="evenodd" clip-rule="evenodd" d="M15 7.5C15 11.6421 11.6421 15 7.5 15C3.35786 15 0 11.6421 0 7.5C0 3.35786 3.35786 0 7.5 0C11.6421 0 15 3.35786 15 7.5ZM7.76877 5.53683C7.03928 5.84025 5.58134 6.46825 3.39493 7.42083C3.0399 7.56201 2.85391 7.70013 2.83698 7.83519C2.80837 8.06344 3.0942 8.15331 3.48342 8.2757C3.53637 8.29235 3.59122 8.3096 3.64746 8.32788C4.0304 8.45236 4.54552 8.59798 4.8133 8.60377C5.05621 8.60902 5.32733 8.50887 5.62665 8.30334C7.66947 6.92438 8.72399 6.22738 8.79019 6.21236C8.8369 6.20175 8.90163 6.18843 8.94548 6.2274C8.98933 6.26638 8.98502 6.3402 8.98038 6.36C8.95206 6.48071 7.83008 7.52381 7.24945 8.06361C7.06844 8.23189 6.94005 8.35126 6.9138 8.37852C6.855 8.43959 6.79508 8.49736 6.73749 8.55288C6.38173 8.89583 6.11494 9.15301 6.75226 9.57299C7.05852 9.77481 7.30359 9.94171 7.54808 10.1082C7.8151 10.29 8.08142 10.4714 8.42601 10.6973C8.5138 10.7548 8.59764 10.8146 8.67931 10.8728C8.99005 11.0944 9.26922 11.2934 9.61412 11.2616C9.81453 11.2432 10.0215 11.0548 10.1267 10.4927C10.3751 9.16446 10.8635 6.28653 10.9764 5.10061C10.9863 4.99671 10.9738 4.86373 10.9638 4.80536C10.9539 4.74699 10.933 4.66382 10.8571 4.60225C10.7672 4.52934 10.6285 4.51396 10.5665 4.51505C10.2844 4.52002 9.8516 4.67051 7.76877 5.53683Z" fill="white"/>
</svg>
