<svg width="15" height="13" viewBox="0 0 15 13" fill="none" xmlns="http://www.w3.org/2000/svg">
<path d="M4.71885 12.1879C10.3778 12.1879 13.4739 7.4984 13.4739 3.43287C13.4739 3.30103 13.471 3.16627 13.4651 3.03443C14.0674 2.59887 14.5872 2.05937 15 1.44127C14.4391 1.69083 13.8435 1.85382 13.2337 1.92467C13.8758 1.53978 14.3566 0.935128 14.5869 0.222812C13.9828 0.580806 13.3222 0.83334 12.6334 0.969589C12.1693 0.476433 11.5556 0.149905 10.8873 0.0404896C10.219 -0.0689262 9.53325 0.0448643 8.93609 0.364268C8.33893 0.683672 7.86363 1.1909 7.58365 1.80753C7.30368 2.42416 7.23464 3.11584 7.38721 3.77564C6.16406 3.71426 4.96746 3.39652 3.87499 2.84302C2.78252 2.28952 1.81856 1.51261 1.04561 0.562656C0.65275 1.23998 0.532535 2.04149 0.709394 2.80426C0.886253 3.56704 1.34691 4.23386 1.99775 4.6692C1.50914 4.65369 1.03123 4.52213 0.603516 4.28541V4.3235C0.603078 5.0343 0.848811 5.72332 1.29894 6.27344C1.74908 6.82355 2.37583 7.20081 3.07266 7.34107C2.62003 7.46491 2.14499 7.48296 1.68428 7.39381C1.88091 8.00511 2.26348 8.53976 2.77861 8.92317C3.29373 9.30657 3.9157 9.51958 4.55771 9.53248C3.46777 10.3887 2.12136 10.853 0.735352 10.8508C0.489554 10.8505 0.243999 10.8354 0 10.8057C1.40804 11.7091 3.04596 12.1888 4.71885 12.1879Z" fill="white"/>
</svg>
