<svg width="19" height="18" viewBox="0 0 19 18" fill="none" xmlns="http://www.w3.org/2000/svg">
<path opacity="0.4" d="M14.6175 5.18455L12.6925 2.64456C12.1741 1.9605 11.2059 1.79639 10.487 2.2707L6.01306 5.22222" stroke="#F9D85E" stroke-width="3" stroke-linecap="round" stroke-linejoin="round"/>
<path fill-rule="evenodd" clip-rule="evenodd" d="M14.6175 8.84717H16.6526C17.1022 8.84717 17.4666 9.20783 17.4666 9.65272V12.0694C17.4666 12.5143 17.1022 12.8749 16.6526 12.8749H14.6175C13.4935 12.8749 12.5824 11.9733 12.5824 10.8611V10.8611C12.5824 9.74882 13.4935 8.84717 14.6175 8.84717V8.84717Z" stroke="#F9D85E" stroke-width="3" stroke-linecap="round" stroke-linejoin="round"/>
<path d="M16.6526 8.84717V7.23606C16.6526 6.12382 15.7415 5.22217 14.6175 5.22217H4.03509C2.91114 5.22217 2 6.12382 2 7.23606V14.4861C2 15.5983 2.91114 16.4999 4.03509 16.4999H14.6175C15.7415 16.4999 16.6526 15.5983 16.6526 14.4861V12.8749" stroke="#F9D85E" stroke-width="3" stroke-linecap="round" stroke-linejoin="round"/>
</svg>
